# xmcd
#
# Track frame offsets:
#	150
#	26295
#	57541
#	72483
#	160515
#	218412
#	236825
#	255840
#	292493
#	328931
#
# Disc length: 4617 seconds
#
# Revision: 0
# Processed by: cddbd v1.5.2PL0 Copyright (c) Steve Scherf et al.
# Submitted via: EasyCDDAExtractor 11.6.0.1
#
DISCID=9212070a
DTITLE=Jimi Hendrix - Studio 69 [CD02)
DYEAR=1969
DGENRE=Blues
TTITLE0=Spanish Castle Magic
TTITLE1=Hear My Train A Comin´
TTITLE2=Noel´s Tune Take 1
TTITLE3=Blue Window Jam Take 2
TTITLE4=Blue Window Jam Take 2 edited
TTITLE5=The Star Spangled Banner 1
TTITLE6=The Star Spangled Banner 2
TTITLE7=The Star Spangled Banner 3
TTITLE8=The Star Spangled Banner 3 - reversed
TTITLE9=Gypsy Boy 1
EXTD=
EXTT0=
EXTT1=
EXTT2=
EXTT3=
EXTT4=
EXTT5=
EXTT6=
EXTT7=
EXTT8=
EXTT9=
PLAYORDER=
